<svg xmlns="http://www.w3.org/2000/svg" width="78" height="64" viewBox="0 0 78 64"><defs><clipPath id="8tjoa"><path d="M0 64h77.625V0H0z"/></clipPath></defs><g><g><g><path fill="#66bb6a" d="M75.721 63.003H39.53V49.049a10.43 10.43 0 0 1 7.432-9.99l10.663-3.199 10.663 3.199a10.429 10.429 0 0 1 7.433 9.99z"/></g><g/><g><path fill="#66bb6a" d="M67.13 21.378l-2.375-9.048h-14.25l-2.375 9.048-9.5 5.429h38z"/></g><g/><g/><g><path fill="#66bb6a" d="M57.628 43.096a9.048 9.048 0 0 1-9.048-9.048V26.81h18.096v7.238a9.048 9.048 0 0 1-9.048 9.048"/></g><g/><g><path fill="#66bb6a" d="M46.395 63.004H2.11V45.928a12.76 12.76 0 0 1 9.095-12.224l13.047-3.914L37.3 33.704a12.76 12.76 0 0 1 9.095 12.224z"/></g><g/><g><path fill="#66bb6a" d="M35.875 12.071L32.969 1H15.531l-2.906 11.071L1 18.714h46.5z"/></g><g/><g/><g><path fill="#66bb6a" d="M24.251 38.639c-6.114 0-11.071-4.957-11.071-11.071V18.71h22.142v8.858c0 6.114-4.957 11.071-11.071 11.071"/></g><g/><g><path d="M0 64h77.625V0H0z"/></g><g clip-path="url(#8tjoa)"/><g clip-path="url(#8tjoa)"/><g clip-path="url(#8tjoa)"/><g clip-path="url(#8tjoa)"><path fill="#fff" d="M35.319 51.925a2.214 2.214 0 1 1-4.427 0 2.214 2.214 0 0 1 4.427 0"/></g><g clip-path="url(#8tjoa)"><path fill="#fff" d="M17.609 51.925a2.214 2.214 0 1 1-4.428 0 2.214 2.214 0 0 1 4.428 0"/></g><g clip-path="url(#8tjoa)"><g><path fill="#66bb6a" d="M19 29c.802 2.329 2.959 4 5.5 4s4.698-1.671 5.5-4"/></g><g/></g></g></g></svg>