<svg width="76" height="19" viewBox="0 0 76 19" fill="none" xmlns="http://www.w3.org/2000/svg">
<g clip-path="url(#clip0)">
<path d="M16 18C16 14.8031 13.7953 12.0886 10.716 11.0615C12.1887 10.1852 13.1667 8.66092 13.1667 6.92308C13.1667 4.20431 10.7787 2 7.83333 2C4.888 2 2.5 4.20431 2.5 6.92308C2.5 8.70892 3.534 10.2689 5.076 11.1311C2.106 12.2098 0 14.8751 0 18" stroke="#66BB6A" stroke-width="2" stroke-linecap="round" stroke-linejoin="round"/>
<path d="M29.024 3.864C30.2293 3.864 31.1733 4.13067 31.856 4.664C32.5493 5.19733 32.896 5.95467 32.896 6.936V7.128H31.328V6.888C31.328 6.376 31.12 5.98133 30.704 5.704C30.288 5.42667 29.7387 5.288 29.056 5.288C28.2987 5.288 27.7067 5.416 27.28 5.672C26.864 5.91733 26.656 6.27467 26.656 6.744C26.656 7.096 26.7733 7.384 27.008 7.608C27.2533 7.832 27.552 8.008 27.904 8.136C28.2667 8.264 28.7627 8.408 29.392 8.568C30.2027 8.78133 30.8587 8.98933 31.36 9.192C31.8613 9.39467 32.288 9.69867 32.64 10.104C33.0027 10.5093 33.184 11.048 33.184 11.72C33.184 12.9147 32.816 13.7893 32.08 14.344C31.3547 14.888 30.3307 15.16 29.008 15.16C27.6853 15.16 26.656 14.8827 25.92 14.328C25.1947 13.7627 24.832 12.9467 24.832 11.88L24.848 11.56H26.416L26.4 11.896C26.4 12.5147 26.6293 12.9787 27.088 13.288C27.5573 13.5867 28.2027 13.736 29.024 13.736C29.824 13.736 30.4533 13.592 30.912 13.304C31.3813 13.0053 31.616 12.6 31.616 12.088C31.616 11.6827 31.488 11.3573 31.232 11.112C30.9867 10.856 30.672 10.6587 30.288 10.52C29.9147 10.3813 29.4027 10.2267 28.752 10.056C27.952 9.84267 27.312 9.64 26.832 9.448C26.352 9.256 25.9413 8.96267 25.6 8.568C25.2587 8.16267 25.088 7.63467 25.088 6.984C25.088 5.928 25.4453 5.144 26.16 4.632C26.8747 4.12 27.8293 3.864 29.024 3.864ZM36.8953 3.48V4.872H35.3273V3.48H36.8953ZM36.8633 6.824V15H35.3593V6.824H36.8633ZM47.0035 5.352C47.0035 5.896 46.8595 6.35467 46.5715 6.728C46.2835 7.09067 45.8835 7.32533 45.3715 7.432L45.3395 7.48C45.8728 7.94933 46.1395 8.536 46.1395 9.24C46.1395 10.008 45.8515 10.6267 45.2755 11.096C44.6995 11.5653 43.9155 11.8 42.9235 11.8H41.8355C41.5155 11.8 41.2488 11.8853 41.0355 12.056C40.8222 12.216 40.7155 12.424 40.7155 12.68C40.7155 12.936 40.8168 13.1387 41.0195 13.288C41.2222 13.4373 41.4942 13.512 41.8355 13.512H44.9235C45.5528 13.512 46.0542 13.7093 46.4275 14.104C46.8115 14.4987 47.0035 15 47.0035 15.608C47.0035 16.3333 46.7262 16.9147 46.1715 17.352C45.6275 17.7893 44.8915 18.008 43.9635 18.008H40.7475C40.3848 18.008 40.0488 17.912 39.7395 17.72C39.4408 17.528 39.2008 17.2827 39.0195 16.984C38.8488 16.696 38.7635 16.3973 38.7635 16.088C38.7635 15.64 38.8702 15.2507 39.0835 14.92C39.3075 14.5893 39.6008 14.344 39.9635 14.184C39.4728 13.8853 39.2275 13.4427 39.2275 12.856C39.2275 12.472 39.3395 12.1413 39.5635 11.864C39.7875 11.5867 40.1022 11.3787 40.5075 11.24C39.7928 10.8453 39.4355 10.1787 39.4355 9.24C39.4355 8.45067 39.7235 7.82667 40.2995 7.368C40.8862 6.89867 41.6968 6.664 42.7315 6.664H42.7955C43.3928 6.664 43.9368 6.75467 44.4275 6.936C45.1848 6.56267 45.6168 6.03467 45.7235 5.352H47.0035ZM42.7795 7.864C42.2142 7.864 41.7608 7.976 41.4195 8.2C41.0888 8.41333 40.9235 8.76 40.9235 9.24C40.9235 9.72 41.0888 10.0667 41.4195 10.28C41.7608 10.4933 42.2142 10.6 42.7795 10.6C43.3448 10.6 43.7982 10.4933 44.1395 10.28C44.4808 10.0667 44.6515 9.72 44.6515 9.24C44.6515 8.76 44.4808 8.41333 44.1395 8.2C43.7982 7.976 43.3448 7.864 42.7795 7.864ZM41.1795 14.952C40.9235 14.952 40.7048 15.0427 40.5235 15.224C40.3422 15.4053 40.2515 15.624 40.2515 15.88C40.2515 16.136 40.3422 16.3547 40.5235 16.536C40.7048 16.7173 40.9235 16.808 41.1795 16.808H44.2675C44.6088 16.808 44.9022 16.7067 45.1475 16.504C45.3928 16.312 45.5155 16.088 45.5155 15.832C45.5155 15.5653 45.4248 15.352 45.2435 15.192C45.0622 15.032 44.8062 14.952 44.4755 14.952H41.1795ZM52.6413 6.664C53.5373 6.664 54.2413 6.904 54.7533 7.384C55.2653 7.864 55.5213 8.568 55.5213 9.496V15H54.0173V9.768C54.0173 8.49867 53.4413 7.864 52.2893 7.864C51.9053 7.864 51.5479 7.96533 51.2173 8.168C50.8866 8.37067 50.6199 8.648 50.4173 9C50.2146 9.34133 50.1133 9.72 50.1133 10.136V15H48.6093V6.824H49.6973L49.9053 8.024C50.5879 7.11733 51.4999 6.664 52.6413 6.664ZM65.6479 4.024V5.448H64.3679V13.576H65.6479V15H61.5199V13.576H62.7999V5.448H61.5199V4.024H65.6479ZM71.86 6.664C72.756 6.664 73.46 6.904 73.972 7.384C74.484 7.864 74.74 8.568 74.74 9.496V15H73.236V9.768C73.236 8.49867 72.66 7.864 71.508 7.864C71.124 7.864 70.7667 7.96533 70.436 8.168C70.1053 8.37067 69.8387 8.648 69.636 9C69.4333 9.34133 69.332 9.72 69.332 10.136V15H67.828V6.824H68.916L69.124 8.024C69.8067 7.11733 70.7187 6.664 71.86 6.664Z" fill="#66BB6A"/>
</g>
<defs>
<clipPath id="clip0">
<rect width="76" height="19" fill="white"/>
</clipPath>
</defs>
</svg>
