<svg xmlns="http://www.w3.org/2000/svg" width="77" height="58" viewBox="0 0 77 58"><g><g><g><g><path fill="#66bb6a" d="M54.56 47.003h2.444V12.78H54.56z"/></g><g><g><path fill="#66bb6a" d="M75.261 7.05H63.843a8.713 8.713 0 0 0-8.713 8.713v3.365h.067c.343-4.498 4.061-8.053 8.646-8.053h11.351c.017-.221.067-.434.067-.661z"/></g><g/><g><path fill="#66bb6a" d="M55.2 19.133h11.351c4.586 0 8.302-3.555 8.646-8.053H63.846c-4.584 0-8.302 3.555-8.646 8.053"/></g><g/><g><path fill="#66bb6a" d="M55.131 13.078H43.714A8.714 8.714 0 0 1 35 4.365V1h.067c.343 4.498 4.061 8.053 8.647 8.053h11.35c.017.221.067.434.067.661z"/></g><g/><g><path fill="#66bb6a" d="M35.07 1h11.351c4.585 0 8.302 3.555 8.646 8.053H43.716c-4.585 0-8.303-3.555-8.646-8.053"/></g><g/><g><path fill="#66bb6a" d="M57.363 36.329a5.707 5.707 0 0 0-5-5.664L37.206 28.77 1 57.005h28l8.206-10.598"/></g><g/><g/><g><path fill="#66bb6a" d="M66.976 28.77l-4.133.491a3.77 3.77 0 0 0-1.505.517l-4.758 2.874v6.352h4.419z"/></g><g/><g><g><path fill="#66bb6a" d="M44.765 36.32h15.118l8.647-8.648a2.807 2.807 0 0 1 3.239-.526L75 28.761 59.883 46.398H37.206L29 56.996"/></g><g/></g></g></g></g></g></svg>